<?xml version="1.0" standalone="no"?>
<!DOCTYPE svg PUBLIC "-//W3C//DTD SVG 1.1//EN" "http://www.w3.org/Graphics/SVG/1.1/DTD/svg11.dtd" >
<svg>
<metadata>
Created by FontForge 20110222 at Mon Mar  7 11:28:27 2011
 By www-data
Generated by Fontographer 4.1.3
</metadata>
<defs>
<font id="CREW36" horiz-adv-x="608" >
  <font-face 
    font-family="CREW 36"
    font-weight="400"
    font-stretch="normal"
    units-per-em="1000"
    panose-1="0 0 4 0 0 0 0 0 0 0"
    ascent="800"
    descent="-200"
    x-height="520"
    cap-height="818"
    bbox="-210 -359 1049 996"
    underline-thickness="20"
    underline-position="-123"
    unicode-range="U+0020-201D"
  />
    <missing-glyph />
    <glyph glyph-name="space" unicode=" " horiz-adv-x="360" 
 />
    <glyph glyph-name="exclam" unicode="!" horiz-adv-x="367" 
d="M202 113h-36v502h36v-502zM202 -18h-36v83h36v-83z" />
    <glyph glyph-name="quotedbl" unicode="&#x22;" horiz-adv-x="1040" 
 />
    <glyph glyph-name="dollar" unicode="$" horiz-adv-x="807" 
d="M751 172q0 -118 -115 -162q-70 -26 -216 -28v-44h-36v44q-234 3 -322 72l23 28q77 -61 299 -64v307q-148 3 -214 27q-114 41 -114 160t113 163q69 26 215 28v40h36v-40q237 -2 325 -72l-23 -28q-78 62 -302 64v-307q151 -3 215 -26q116 -42 116 -162zM384 361v306
q-130 -2 -188 -21q-104 -34 -104 -134q0 -98 103 -131q56 -18 189 -20zM715 172q0 100 -105 133q-55 17 -190 19v-306q132 2 189 20q106 34 106 134z" />
    <glyph glyph-name="ampersand" unicode="&#x26;" horiz-adv-x="1018" 
d="M958 13l-24 -26l-164 151q-202 -154 -391 -154q-125 0 -206 35q-114 49 -113 157q1 148 294 346q-129 120 -130 186q-1 67 47 92q34 18 107 18q90 0 128 -13q67 -23 67 -97q0 -66 -52 -116q-26 -25 -109 -75l360 -332q46 38 94 84l25 -26q-47 -45 -92 -82zM537 708
q0 54 -58 68q-24 6 -101 6q-58 0 -81 -10q-38 -15 -37 -64q1 -51 125 -166l65 42q46 30 62 49q25 30 25 75zM743 163l-362 335q-103 -67 -176 -137q-108 -105 -109 -185q-1 -89 104 -129q72 -27 179 -27q175 0 364 143z" />
    <glyph glyph-name="quotesingle" unicode="'" horiz-adv-x="80" 
d="M60 772q0 -96 -20 -96t-20 96q0 20 20 20t20 -20z" />
    <glyph glyph-name="parenleft" unicode="(" horiz-adv-x="276" 
d="M276 -232q-127 0 -191 230q-45 160 -45 329t45 329q64 230 191 230v-36q-78 0 -137 -147q-63 -156 -63 -376t63 -376q59 -147 137 -147v-36z" />
    <glyph glyph-name="parenright" unicode=")" horiz-adv-x="276" 
d="M236 327q0 -169 -45 -329q-64 -230 -191 -230v36q78 0 137 147q63 156 63 376t-63 376q-59 147 -137 147v36q127 0 191 -230q45 -160 45 -329z" />
    <glyph glyph-name="asterisk" unicode="*" horiz-adv-x="303" 
d="M265 454l-21 -29l-75 56v-93h-36v93l-74 -56l-21 29l83 63l-83 63l21 29l74 -56v93h36v-93l75 56l21 -29l-84 -63z" />
    <glyph glyph-name="comma" unicode="," horiz-adv-x="155" 
d="M96 40q0 -26 -9 -56q-12 -40 -31 -40v96q0 20 20 20t20 -20z" />
    <glyph glyph-name="hyphen" unicode="-" horiz-adv-x="1040" 
 />
    <glyph glyph-name="hyphen" unicode="&#x2010;" horiz-adv-x="1040" 
 />
    <glyph glyph-name="period" unicode="." horiz-adv-x="155" 
d="M98 20q0 -20 -20 -20t-20 20t20 20t20 -20z" />
    <glyph glyph-name="slash" unicode="/" horiz-adv-x="409" 
d="M352 794l-260 -800l-34 12l260 800z" />
    <glyph glyph-name="zero" unicode="0" 
d="M571 334q0 -169 -50 -250q-63 -102 -220 -102q-156 0 -217 103q-46 79 -46 249t46 250q61 104 217 104q157 0 220 -103q50 -82 50 -251zM535 334q0 154 -40 224q-54 94 -194 94q-139 0 -190 -94q-37 -69 -37 -224t37 -223q51 -93 190 -93q140 0 194 92q40 70 40 224z" />
    <glyph glyph-name="one" unicode="1" 
d="M412 -18h-216v36h90v630l-86 -8v36l122 18v-676h90v-36z" />
    <glyph glyph-name="three" unicode="3" 
d="M564 188q0 -119 -87 -168q-67 -38 -197 -38q-165 0 -236 70l25 25q60 -59 211 -59q115 0 171 28q77 40 77 142q0 79 -67 116q-54 30 -146 33q-47 0 -143 1l-12 31l295 281h-365v36h410l13 -31l-296 -281q156 0 223 -22q124 -41 124 -164z" />
    <glyph glyph-name="four" unicode="4" 
d="M553 238h-170v-238h-36v238h-290l-2 46l287 384h41v-394h170v-36zM347 274v340l-254 -340h254z" />
    <glyph glyph-name="five" unicode="5" 
d="M566 176q0 -120 -97 -164q-66 -30 -204 -30q-154 0 -223 46l20 30q60 -40 203 -40q122 0 177 22q88 35 88 136t-88 136q-55 22 -177 22h-197l40 352h440v-36h-408l-32 -280h157q137 0 204 -30q97 -45 97 -164z" />
    <glyph glyph-name="six" unicode="6" 
d="M571 199q0 -124 -76 -176q-63 -43 -194 -43q-132 0 -192 43q-71 51 -71 176v15q1 10 1 14l-1 104q-2 174 53 256q66 98 231 98q192 0 236 -122l-34 -12q-36 98 -202 98q-146 0 -203 -85q-45 -69 -45 -225q55 76 227 76q132 0 194 -42q76 -51 76 -175zM535 199
q0 108 -66 149q-51 32 -168 32q-106 0 -155 -24q-71 -35 -71 -128v-29h-1q0 -109 61 -150q50 -33 166 -33t168 33q66 42 66 150z" />
    <glyph glyph-name="seven" unicode="7" 
d="M552 686v-46q-99 -103 -162 -187q-183 -245 -224 -456l-36 6q32 165 145 348q96 155 234 299h-453v36h496z" />
    <glyph glyph-name="eight" unicode="8" 
d="M567 193q8 -108 -78 -164q-71 -47 -185 -47t-185 47q-86 56 -78 164q9 112 142 145q-143 36 -143 168q0 188 264 188t264 -188q0 -132 -142 -168q133 -33 141 -145zM531 486q15 172 -227 172t-227 -172q6 -68 90 -104q64 -27 144 -27q79 0 138 27q76 35 82 104zM531 191
q-5 68 -89 103q-64 27 -143 27t-139 -27q-78 -35 -83 -104q-7 -92 68 -136q61 -36 159 -36t159 36q75 46 68 137z" />
    <glyph glyph-name="nine" unicode="9" 
d="M570 335q-5 -170 -47 -247q-59 -106 -212 -106q-112 0 -167 26q-75 36 -106 136l34 11q26 -86 87 -115q47 -22 152 -22q131 0 181 90q36 64 41 213q-61 -91 -229 -91q-265 0 -262 216q2 117 75 181q70 61 189 61q163 0 224 -107q45 -78 40 -246zM532 446q-11 106 -65 156
t-161 50q-104 0 -164 -51q-63 -54 -64 -156q-3 -179 226 -179q228 0 226 180h2z" />
    <glyph glyph-name="colon" unicode=":" horiz-adv-x="205" 
d="M123 380q0 -20 -20 -20t-20 20t20 20t20 -20zM123 92q0 -20 -20 -20t-20 20t20 20t20 -20z" />
    <glyph glyph-name="semicolon" unicode=";" horiz-adv-x="205" 
d="M123 380q0 -20 -20 -20t-20 20t20 20t20 -20zM123 176q0 -26 -9 -56q-12 -40 -31 -40v96q0 20 20 20t20 -20z" />
    <glyph glyph-name="question" unicode="?" horiz-adv-x="652" 
d="M592 573q0 -89 -64 -156q-40 -33 -120 -101q-64 -57 -64 -128h-36q0 80 64 144q41 33 120 101q64 58 64 140q0 116 -82 169q-56 36 -128 36q-124 0 -195 -81q-55 -62 -55 -124h-36q0 76 64 148q82 93 222 93q84 0 148 -41q98 -63 98 -200zM346 0h-38v76h38v-76z" />
    <glyph glyph-name="at" unicode="@" horiz-adv-x="675" 
d="M550 111q-30 0 -46 23q-56 -48 -174 -48q-101 0 -147 34q-55 40 -55 136q0 97 55 137q47 35 148 33q97 -2 199 -33v-225q0 -22 20 -22q24 0 39 31q11 24 12 52q1 20 1 38q0 130 -69 184q-62 48 -197 48q-140 0 -199 -51q-64 -55 -64 -192t64 -191q58 -50 199 -50
q144 0 204 52l24 -27q-70 -61 -228 -61q-156 0 -225 60q-74 64 -74 217q0 152 74 218q70 61 225 61q150 0 223 -59q79 -65 79 -211q0 -78 -23.5 -116t-64.5 -38zM494 177v189q-88 23 -164 24q-85 1 -122 -24q-44 -30 -44 -110t44 -110q36 -24 122 -24q60 0 90 8q42 12 74 47
z" />
    <glyph glyph-name="A" unicode="A" horiz-adv-x="1080" 
d="M1000 0l-32 -17l-152 281h-555l-149 -281l-32 17l437 826h40zM797 300l-260 488l-257 -488h517z" />
    <glyph glyph-name="B" unicode="B" horiz-adv-x="1015" 
d="M925 198q0 -147 -115 -191q-65 -25 -246 -25h-474v836h474q178 0 246 -27q115 -47 115 -193q0 -88 -39 -133.5t-126 -65.5q87 -19 126 -66t39 -135zM889 598q0 104 -54 140q-66 44 -271 44h-438v-364h413q168 0 228 18q122 37 122 162zM889 198q0 102 -65 140
q-75 44 -285 44h-413v-364h438q206 0 271 42q54 35 54 138z" />
    <glyph glyph-name="C" unicode="C" horiz-adv-x="1041" 
d="M973 573l-34 -10q-40 129 -166 181q-94 38 -253 38q-222 0 -315 -79q-101 -86 -101 -303q0 -216 101 -302q94 -80 315 -80q157 0 251 38q127 51 166 177l35 -10q-45 -140 -179 -198q-102 -43 -273 -43q-236 0 -340 90q-112 97 -112 328t112 328q104 90 340 90
q172 0 275 -44q135 -59 178 -201z" />
    <glyph glyph-name="D" unicode="D" horiz-adv-x="1064" 
d="M984 400q0 -231 -112 -328q-104 -90 -340 -90h-452v836h452q236 0 340 -90q112 -97 112 -328zM948 400q0 217 -101 303q-93 79 -315 79h-416v-764h416q221 0 314 80q102 86 102 302z" />
    <glyph glyph-name="E" unicode="E" horiz-adv-x="910" 
d="M840 -18h-770v836h770v-36h-734v-364h734v-36h-734v-364h734v-36z" />
    <glyph glyph-name="F" unicode="F" horiz-adv-x="870" 
d="M830 782h-754v-364h562v-36h-562v-382h-36v818h790v-36z" />
    <glyph glyph-name="G" unicode="G" horiz-adv-x="1062" 
d="M982 304q0 -321 -450 -321q-236 0 -340 89q-112 97 -112 328q0 232 112 329q104 90 340 90q371 0 449 -232l-34 -12q-42 122 -168 172q-92 36 -247 36q-221 0 -315 -80q-101 -87 -101 -303t101 -302q94 -79 315 -79q177 0 274 47q132 64 140 220h-171v36h207v-18z" />
    <glyph glyph-name="H" unicode="H" horiz-adv-x="1028" 
d="M948 0h-36v382h-796v-382h-36v800h36v-382h796v382h36v-800z" />
    <glyph glyph-name="I" unicode="I" horiz-adv-x="772" 
d="M692 -18h-612v36h296v764h-296v36h612v-36h-280v-764h280v-36z" />
    <glyph glyph-name="J" unicode="J" horiz-adv-x="1002" 
d="M922 352q0 -222 -102 -302q-89 -68 -319 -68q-210 0 -300 53q-102 60 -121 219l36 4q17 -154 129 -205q76 -35 256 -35q216 0 293 59q92 69 92 275v448h36v-448z" />
    <glyph glyph-name="K" unicode="K" horiz-adv-x="944" 
d="M864 11l-28 -22l-419 509l-301 -196v-302h-36v800h36v-455l724 470l20 -30l-413 -268z" />
    <glyph glyph-name="L" unicode="L" horiz-adv-x="890" 
d="M840 -18h-790v818h36v-782h754v-36z" />
    <glyph glyph-name="M" unicode="M" horiz-adv-x="1036" 
d="M956 0h-36v727l-382 -727h-40l-382 727v-727h-36v800h38l400 -761l400 761h38v-800z" />
    <glyph glyph-name="N" unicode="N" horiz-adv-x="1034" 
d="M939 0l-42 -2l-766 759v-757h-36v800l42 2l766 -759v757h36v-800z" />
    <glyph glyph-name="O" unicode="O" horiz-adv-x="1054" 
d="M979 400q0 -231 -112 -328q-104 -90 -340 -90t-340 90q-112 97 -112 328t112 328q104 90 340 90t340 -90q112 -97 112 -328zM943 400q0 217 -101 303q-93 79 -315 79t-315 -79q-101 -86 -101 -303q0 -216 102 -302q93 -80 314 -80t314 80q102 86 102 302z" />
    <glyph glyph-name="P" unicode="P" horiz-adv-x="968" 
d="M888 531q0 -167 -75 -229q-84 -70 -319 -70h-378v-244h-36v838h414q235 0 319 -68q75 -61 75 -227zM852 531q0 149 -62 200q-72 59 -296 59h-378v-522h378q223 0 296 61q62 52 62 202z" />
    <glyph glyph-name="Q" unicode="Q" horiz-adv-x="1107" 
d="M1027 400q0 -179 -66 -273q-74 -105 -243 -133q43 -88 157 -88v-36q-143 0 -195 119q-57 -7 -126 -7q-243 0 -352 86q-122 97 -122 332t122 332q108 86 352 86q158 0 254 -34q133 -47 183 -165l1 -1q35 -84 35 -218zM991 400q0 220 -111 306q-97 76 -326 76
q-155 0 -244 -32q-127 -45 -168 -164l-1 -1q-25 -73 -25 -185q0 -219 112 -306q98 -76 326 -76t326 76q111 87 111 306z" />
    <glyph glyph-name="R" unicode="R" horiz-adv-x="988" 
d="M898 556q0 -114 -18 -171q-30 -93 -114 -117l130 -260l-32 -16l-135 270h-603v-262h-36v818h582q132 0 183 -67q43 -58 43 -195zM862 556q0 122 -33 169q-41 57 -157 57h-546v-484h608q83 21 110 92q18 48 18 166z" />
    <glyph glyph-name="S" unicode="S" horiz-adv-x="1044" 
d="M974 201q0 -145 -167 -193q-91 -26 -285 -26q-327 0 -445 83l21 29q108 -76 424 -76q180 0 257 19q159 39 159 164q0 97 -88 139q-64 30 -170 36q-78 2 -233 6q-143 4 -229 31q-148 47 -148 186q0 145 167 193q91 26 285 26q327 0 445 -83l-21 -29q-108 76 -424 76
q-180 0 -257 -19q-159 -39 -159 -164q0 -114 123 -152q87 -27 287 -29q206 -2 290 -25q168 -46 168 -192z" />
    <glyph glyph-name="T" unicode="T" horiz-adv-x="872" 
d="M822 782h-366v-782h-36v782h-370v36h772v-36z" />
    <glyph glyph-name="U" unicode="U" horiz-adv-x="1064" 
d="M984 400q0 -231 -112 -328q-104 -90 -340 -90t-340 90q-112 97 -112 328v400h36v-400q0 -216 102 -302q93 -80 314 -80t314 80q102 86 102 302v400h36v-400z" />
    <glyph glyph-name="V" unicode="V" horiz-adv-x="944" 
d="M874 792l-400 -833l-404 833l32 16l372 -767l368 767z" />
    <glyph glyph-name="W" unicode="W" horiz-adv-x="1096" 
d="M1046 803l-242 -803h-38l-220 737l-220 -737h-38l-238 800l34 10l223 -747l220 737h38l220 -737l226 750z" />
    <glyph glyph-name="X" unicode="X" horiz-adv-x="950" 
d="M870 12l-26 -24l-369 386l-369 -386l-26 24l370 388l-370 388l26 24l369 -386l369 386l26 -24l-370 -388z" />
    <glyph glyph-name="Y" unicode="Y" horiz-adv-x="922" 
d="M872 800l-391 -506v-294h-36v294l-395 506h46l367 -471l364 471h45z" />
    <glyph glyph-name="Z" unicode="Z" horiz-adv-x="968" 
d="M918 -18h-868v42l822 758h-822v36h868v-42l-822 -758h822v-36z" />
    <glyph glyph-name="bracketleft" unicode="[" horiz-adv-x="186" 
d="M136 -100h-86v956h86v-36h-50v-884h50v-36z" />
    <glyph glyph-name="backslash" unicode="\" horiz-adv-x="409" 
d="M352 6l-34 -12l-260 800l34 12z" />
    <glyph glyph-name="bracketright" unicode="]" horiz-adv-x="186" 
d="M136 -100h-86v36h50v884h-50v36h86v-956z" />
    <glyph glyph-name="a" unicode="a" horiz-adv-x="747" 
d="M667 -18q-41 0 -51 47q-76 -47 -251 -47q-128 0 -189 24q-96 39 -96 146t96 146q61 24 189 24q161 0 250 -23q-3 123 -67 167q-52 36 -183 36q-174 0 -255 -77l-24 26q90 87 279 87q144 0 207 -45q79 -56 79 -205v-244q0 -26 16 -26v-36zM615 72v190q-87 24 -250 24
q-112 0 -162 -17q-87 -29 -87 -117q0 -89 87 -118q48 -16 162 -16q187 0 250 54z" />
    <glyph glyph-name="b" unicode="b" horiz-adv-x="740" 
d="M670 259q0 -152 -74 -217q-70 -60 -225 -60q-188 0 -265 73v-55h-36v800h36v-351q68 89 265 89q155 0 225 -61q74 -66 74 -218zM634 259q0 138 -63 192q-59 51 -200 51q-249 0 -265 -154v-216h2q0 -64 107 -94q71 -20 156 -20q140 0 199 50q64 54 64 191z" />
    <glyph glyph-name="c" unicode="c" horiz-adv-x="738" 
d="M668 417l-31 -18q-63 103 -268 103q-141 0 -200 -51q-63 -54 -63 -192q0 -137 64 -191q59 -50 199 -50q202 0 266 100l31 -20q-75 -116 -297 -116q-155 0 -225 60q-74 65 -74 217t74 218q70 61 225 61q225 0 299 -121z" />
    <glyph glyph-name="d" unicode="d" horiz-adv-x="760" 
d="M680 0h-36v65q-83 -83 -265 -83q-155 0 -225 60q-74 65 -74 217t74 218q70 61 225 61q191 0 265 -105v367h36v-800zM644 144v185q-9 94 -94 138q-67 35 -171 35q-141 0 -200 -51q-63 -54 -63 -192q0 -137 64 -191q59 -50 199 -50q82 0 158 25q105 36 105 101h2z" />
    <glyph glyph-name="e" unicode="e" horiz-adv-x="740" 
d="M672 240l-564 2q4 -129 70 -179q59 -45 193 -45q184 0 268 75l24 -27q-94 -84 -292 -84q-155 0 -225 60q-74 65 -74 217t74 218q70 61 225 61q156 0 226 -61q75 -65 75 -218v-19zM636 277q-4 129 -71 180q-59 45 -194 45q-133 0 -192 -45q-67 -51 -71 -179z" />
    <glyph glyph-name="f" unicode="f" horiz-adv-x="508" 
d="M508 814l-4 -36q-36 5 -78 5q-141 0 -186 -52q-40 -47 -40 -191v-20h242v-36h-242v-484h-36v484h-134v36h134v20q0 159 50 216q55 63 212 63q44 0 82 -5z" />
    <glyph glyph-name="g" unicode="g" horiz-adv-x="695" 
d="M675 -155q0 -204 -334 -204q-321 0 -321 204q0 154 175 192q-68 28 -68 80q0 37 36 82l4 5q-82 39 -82 152q0 108 74 150q57 32 175 32q66 0 113 -9q20 107 127 107v-36q-79 0 -92 -80q117 -38 117 -164q0 -106 -85 -148q-60 -30 -180 -30q-80 0 -131 14q-37 -39 -37 -71
q0 -58 128 -71v-1q23 1 47 1q334 0 334 -205zM563 356q0 90 -74 123q-51 23 -155 23q-105 0 -149 -22q-64 -32 -64 -124q0 -90 66 -121q44 -21 147 -21q105 0 154 21q75 32 75 121zM639 -155q0 169 -298 169q-121 0 -187 -27q-98 -40 -98 -142q0 -103 98 -142
q65 -26 187 -26q298 0 298 168z" />
    <glyph glyph-name="h" unicode="h" horiz-adv-x="756" 
d="M678 1h-36v303q0 119 -70 163q-56 35 -196 35q-172 0 -262 -82v-420h-36v800h36v-333q94 71 262 71q147 0 214 -41q88 -54 88 -193v-303z" />
    <glyph glyph-name="i" unicode="i" horiz-adv-x="316" 
d="M176 632h-36v83h36v-83zM176 0h-36v520h36v-520z" />
    <glyph glyph-name="j" unicode="j" horiz-adv-x="309" 
d="M208 650q0 -18 -18 -18t-18 18t18 18t18 -18zM209 23q0 -159 -50 -216q-55 -63 -212 -63q-92 0 -157 19l10 35q61 -18 147 -18q142 0 186 52q40 46 40 191v497h36v-497z" />
    <glyph glyph-name="k" unicode="k" horiz-adv-x="709" 
d="M619 10l-30 -20l-250 393l-213 -95v-288h-36v800h36v-472l471 208l14 -32l-239 -107z" />
    <glyph glyph-name="l" unicode="l" horiz-adv-x="276" 
d="M156 0h-36v800h36v-800z" />
    <glyph glyph-name="m" unicode="m" horiz-adv-x="974" 
d="M904 0h-36v312q0 111 -36 151t-144 39q-123 -1 -182 -73v-429h-36v436q-12 36 -85 54q-51 13 -97 12q-124 -2 -182 -73v-429h-36v520h36v-41q72 58 182 59q57 1 108 -13q71 -19 98 -57q72 69 194 70q123 1 171 -51q45 -49 45 -175v-312z" />
    <glyph glyph-name="n" unicode="n" horiz-adv-x="750" 
d="M675 1h-36v303q0 119 -70 163q-56 35 -196 35q-177 0 -262 -71v-431h-36v520h36v-44q94 62 262 62q147 0 214 -41q88 -54 88 -193v-303z" />
    <glyph glyph-name="o" unicode="o" horiz-adv-x="740" 
d="M672 259q0 -152 -75 -217q-70 -60 -226 -60q-155 0 -225 60q-74 65 -74 217t74 218q70 61 225 61q156 0 226 -61q75 -65 75 -218zM636 259q0 137 -65 192q-59 51 -200 51t-200 -51q-63 -54 -63 -192q0 -137 64 -191q59 -50 199 -50t200 50q65 54 65 191z" />
    <glyph glyph-name="p" unicode="p" horiz-adv-x="750" 
d="M676 261q0 -152 -74 -218q-70 -61 -225 -61q-90 0 -140 12q-68 17 -125 64v-314h-36v776h36v-55q105 73 265 73q155 0 225 -60q74 -65 74 -217zM640 261q0 137 -64 191q-59 50 -199 50q-168 0 -265 -82v-313q54 -55 118 -74q51 -15 147 -15q141 0 200 51q63 54 63 192z
" />
    <glyph glyph-name="q" unicode="q" horiz-adv-x="819" 
d="M851 -123l-215 -133v312q-105 -73 -265 -73q-156 0 -225 60q-74 65 -74 218q0 152 74 217q70 61 225 61q164 0 265 -78v59h36v-711l161 99zM636 101v312q-95 90 -265 90q-140 0 -199 -50q-64 -55 -64 -192t64 -192q58 -50 199 -50q168 0 265 82z" />
    <glyph glyph-name="r" unicode="r" horiz-adv-x="618" 
d="M588 464l-26 -24q-59 62 -176 62q-186 0 -250 -104v-398h-36v520h36v-64q80 82 250 82q132 0 202 -74z" />
    <glyph glyph-name="s" unicode="s" horiz-adv-x="742" 
d="M672 140q0 -105 -107 -139q-58 -19 -194 -19q-221 0 -294 60l23 28q63 -52 271 -52q120 0 167 12q98 25 98 110q0 65 -55 86q-31 12 -107 13q10 0 -51 -1h-52h-126q-175 12 -175 142q0 106 107 139q57 19 194 19q219 0 292 -59l-22 -28q-64 51 -270 51q-121 0 -167 -12
q-98 -25 -98 -110q0 -65 54 -89q34 -15 108 -17h103q16 0 48 1t48 1q91 0 138 -23q67 -32 67 -113z" />
    <glyph glyph-name="t" unicode="t" horiz-adv-x="547" 
d="M477 -16q-26 -2 -57 -2q-91 0 -137 19q-64 28 -80 103q-9 42 -9 155v243h-134v36h134v262h36v-262h206v-36h-206v-243q0 -109 7 -144q12 -63 68 -84q35 -13 115 -13q29 0 55 2z" />
    <glyph glyph-name="u" unicode="u" horiz-adv-x="760" 
d="M680 0h-36v37q-85 -55 -262 -55q-147 0 -214 41q-88 54 -88 193v303h36v-303q0 -119 70 -163q56 -35 196 -35q87 0 137 10q74 14 125 53v439h36v-520z" />
    <glyph glyph-name="v" unicode="v" horiz-adv-x="662" 
d="M608 512l-256 -512h-40l-256 512l32 16l244 -488l244 488z" />
    <glyph glyph-name="w" unicode="w" horiz-adv-x="823" 
d="M775 514l-170 -514h-38l-154 463l-153 -463h-38l-170 514l34 12l155 -469l154 463h37l154 -463l155 469z" />
    <glyph glyph-name="x" unicode="x" horiz-adv-x="688" 
d="M640 13l-24 -26l-270 249l-270 -249l-24 26l268 248l-268 247l24 26l270 -249l270 249l24 -26l-267 -247z" />
    <glyph glyph-name="y" unicode="y" horiz-adv-x="730" 
d="M664 0q0 -152 -76 -217q-70 -60 -226 -60q-125 0 -193 37l18 32q59 -33 175 -33q141 0 200 50q66 54 66 191v43q-88 -61 -266 -61q-159 0 -220 40q-78 52 -78 201v297h36v-297q0 -133 67 -174q50 -31 195 -31q70 0 142 15q96 19 124 57v426h36v-516z" />
    <glyph glyph-name="z" unicode="z" horiz-adv-x="714" 
d="M640 496l-518 -478h518v-36h-564v42l518 478h-518v36h564v-42z" />
    <glyph glyph-name="braceleft" unicode="{" horiz-adv-x="179" 
d="M143 874q-25 0 -40 -40q-12 -31 -12 -60q0 -318 -32 -378q32 -60 32 -378q0 -29 12 -60q15 -40 40 -40q18 0 18 -18t-18 -18q-43 0 -68 49q-20 39 -20 87q0 312 -27 362q-10 4 -10 16t10 16q27 50 27 362q0 48 20 87q25 49 68 49q18 0 18 -18t-18 -18z" />
    <glyph glyph-name="bar" unicode="|" horiz-adv-x="1000" 
d="M518 -20h-36v840h36v-840z" />
    <glyph glyph-name="braceright" unicode="}" horiz-adv-x="208" 
d="M165 380q-27 -50 -27 -362q0 -49 -19 -87q-24 -49 -68 -49q-18 0 -18 18t17 18q26 0 41 40q11 30 11 60q0 318 33 378q-33 60 -33 378q0 30 -11 60q-15 40 -41 40q-18 0 -18 18t19 18q44 0 68 -49q19 -38 19 -87q0 -312 27 -362q10 -4 10 -16t-10 -16z" />
    <glyph glyph-name="asciitilde" unicode="~" horiz-adv-x="306" 
d="M264 540q8 -44 -58 -44q-24 0 -57 7q-6 1 -46 6q-18 0 -26 -3v1l-36 -6q-7 43 59 43q30 0 57 -6q18 -4 46 -6q19 -1 26 2z" />
    <glyph glyph-name="paragraph" unicode="&#xb6;" horiz-adv-x="527" 
d="M489 0h-36v138q-43 -8 -76 -12v-126h-36v123h-4q-164 0 -230 63q-69 65 -69 214q0 153 74 218q69 61 225 61q41 0 152 -1v-678zM453 175v0v467h-76v-481q29 4 76 14zM341 159v484h-4q-141 0 -200 -51q-63 -54 -63 -192q0 -139 63 -192q58 -49 200 -49h4z" />
    <glyph glyph-name="AE" unicode="&#xc6;" horiz-adv-x="913" 
d="M898 -18h-388l-35 256h-310l-117 -246l-33 16l391 812l25 -2h467v-36h-462l50 -364h412v-36h-407l51 -364h356v-36zM470 274l-65 464l-222 -464h287z" />
    <glyph glyph-name="Oslash" unicode="&#xd8;" horiz-adv-x="1014" 
d="M959 400q0 -231 -112 -328q-104 -90 -340 -90q-186 0 -288 54l-41 -48l-27 24l37 43q-133 93 -133 345q0 231 112 328q104 90 340 90q186 0 288 -54l40 48l27 -24l-36 -43q133 -92 133 -345zM923 400q0 236 -121 318l-559 -654q92 -46 264 -46q221 0 314 80
q102 86 102 302zM771 736q-93 46 -264 46q-222 0 -315 -79q-101 -86 -101 -303q0 -236 121 -318z" />
    <glyph glyph-name="ae" unicode="&#xe6;" horiz-adv-x="1062" 
d="M1049 259q0 -17 -44 -19h-52l-404 2q2 -123 54.5 -173.5t176.5 -50.5q161 0 236 74l25 -25q-85 -85 -261 -85q-200 0 -248 135q-47 -135 -252 -135q-121 0 -180 26q-86 39 -86 144q0 106 86 144q57 26 180 26q145 0 232 -23q-3 125 -62 168q-48 35 -170 35
q-161 0 -236 -76l-25 25q84 87 261 87q99 0 153 -22q75 -31 100 -111q49 133 247 133q145 0 207 -66.5t62 -212.5zM1013 277q-3 123 -56 174t-177 51t-176.5 -50.5t-55.5 -173.5zM513 229v15q-1 10 -1 15v4q-81 23 -232 23q-107 0 -153 -18q-77 -29 -77 -116t77 -116
q46 -18 153 -18q120 0 174 45q59 50 59 166z" />
    <glyph glyph-name="oslash" unicode="&#xf8;" horiz-adv-x="674" 
d="M637 259q0 -152 -75 -217q-70 -60 -226 -60q-98 0 -160 23l-14 -16l-27 22l7 9q-105 60 -105 239q0 152 74 218q70 61 225 61q131 0 200 -42l23 27l27 -22l-21 -26q72 -65 72 -216zM601 259q0 134 -59 188l-342 -413q53 -16 136 -16q141 0 200 50q65 54 65 191zM513 468
q-60 34 -177 34q-141 0 -200 -51q-63 -54 -63 -192q0 -162 92 -210z" />
    <glyph glyph-name="quotedblleft" unicode="&#x201c;" horiz-adv-x="1040" 
 />
    <glyph glyph-name="quotedblright" unicode="&#x201d;" horiz-adv-x="1040" 
 />
    <glyph glyph-name="quoteleft" unicode="&#x2018;" horiz-adv-x="1040" 
 />
    <glyph glyph-name="quoteright" unicode="&#x2019;" horiz-adv-x="1040" 
 />
    <glyph glyph-name="Eth" unicode="&#xd0;" horiz-adv-x="1000" 
d="M978 400q0 -231 -112 -328q-104 -90 -340 -90h-452v400h-51v36h51v400h452q236 0 340 -90q112 -97 112 -328zM942 400q0 217 -101 303q-93 79 -315 79h-416v-364h217v-36h-217v-364h416q221 0 314 80q102 86 102 302z" />
    <glyph glyph-name="Scaron" unicode="&#x160;" horiz-adv-x="1004" 
d="M1045 198q0 -145 -167 -193q-91 -26 -285 -26q-327 0 -444 83l21 29q108 -76 423 -76q180 0 257 19q159 39 159 164q0 97 -88 139q-60 29 -170 35q-25 1 -233 7q-145 4 -228 30q-149 47 -149 186q0 145 167 194q91 26 285 26q328 0 445 -83l-21 -30q-108 77 -424 77
q-177 0 -257 -20q-159 -40 -159 -164q0 -113 123 -151q79 -24 294 -29q207 -4 283 -25q168 -45 168 -192zM591 918l-80 -56l-80 56l8 16l72 -32l73 32z" />
    <glyph glyph-name="scaron" unicode="&#x161;" horiz-adv-x="697" 
d="M669 139q0 -105 -107 -139q-58 -19 -194 -19q-221 0 -294 60l23 28q63 -52 271 -52q123 0 167 11q98 25 98 111q0 65 -55 86q-31 12 -107 13q10 0 -51 -1h-52h-126q-175 12 -175 142q0 106 107 140q58 18 194 18q219 0 292 -59l-22 -28q-64 51 -270 51q-121 0 -167 -12
q-98 -25 -98 -110q0 -65 54 -89q34 -15 108 -17h103q16 0 48 1t48 1q91 0 138 -23q67 -32 67 -113zM425 637l-80 -56l-80 56l7 16l73 -32l73 32z" />
    <glyph glyph-name="Zcaron" unicode="&#x17d;" horiz-adv-x="940" 
d="M954 -18h-868v42l822 758h-822v36h868v-42l-822 -758h822v-36zM556 918l-80 -56l-80 56l7 16l73 -32l73 32z" />
    <glyph glyph-name="zcaron" unicode="&#x17e;" horiz-adv-x="664" 
d="M690 496l-518 -478h518v-36h-564v42l518 478h-518v36h564v-42zM426 637l-80 -56l-80 56l7 16l73 -32l73 32z" />
    <glyph glyph-name="onehalf" unicode="&#xbd;" horiz-adv-x="614" 
d="M556 334q0 -161 -45 -237q-59 -97 -207 -97q-147 0 -204 98q-42 74 -42 236t42 237q56 99 204 99t207 -98q45 -77 45 -238z" />
    <glyph glyph-name="onequarter" unicode="&#xbc;" horiz-adv-x="614" 
d="M556 334q0 -161 -45 -237q-59 -97 -207 -97q-147 0 -204 98q-42 74 -42 236t42 237q56 99 204 99t207 -98q45 -77 45 -238z" />
    <glyph glyph-name="onesuperior" unicode="&#xb9;" horiz-adv-x="614" 
d="M556 334q0 -161 -45 -237q-59 -97 -207 -97q-147 0 -204 98q-42 74 -42 236t42 237q56 99 204 99t207 -98q45 -77 45 -238z" />
    <glyph glyph-name="Adieresis" unicode="&#xc4;" horiz-adv-x="839" 
d="M966 0l-32 -17l-153 281h-555l-149 -281l-31 17l436 826h41zM762 300l-259 488l-258 -488h517zM588 884q0 -20 -20 -20t-20 20t20 20t20 -20zM288 884q0 -20 -20 -20t-20 20t20 20t20 -20z" />
    <glyph glyph-name="Aring" unicode="&#xc5;" horiz-adv-x="833" 
d="M963 0l-32 -17l-153 281h-555l-149 -281l-31 17l436 826h41zM759 300l-259 488l-258 -488h517zM415 932q0 -27 -18.5 -45.5t-45.5 -18.5t-45.5 18.5t-18.5 45.5t18.5 45.5t45.5 18.5t45.5 -18.5t18.5 -45.5zM399 932q0 20 -14 34t-34 14t-34 -14t-14 -34t14 -34t34 -14
t34 14t14 34z" />
    <glyph glyph-name="Ccedilla" unicode="&#xc7;" horiz-adv-x="933" 
d="M919 573l-34 -10q-40 129 -166 181q-94 38 -253 38q-222 0 -315 -79q-101 -86 -101 -303q0 -216 101 -302q94 -80 315 -80q157 0 251 38q127 51 166 177l35 -10q-45 -140 -179 -198q-102 -43 -273 -43q-236 0 -340 90q-112 97 -112 328t112 328q104 90 340 90
q172 0 275 -44q135 -59 178 -201z" />
    <glyph glyph-name="Eacute" unicode="&#xc9;" horiz-adv-x="794" 
d="M872 -18h-770v836h770v-36h-734v-364h734v-36h-734v-364h734v-36z" />
    <glyph glyph-name="Ntilde" unicode="&#xd1;" horiz-adv-x="939" 
d="M928 0l-42 -2l-766 759v-757h-36v800l42 2l766 -759v757h36v-800zM609 905q0 -39 -49 -39q-33 0 -104.5 21.5t-96.5 21.5q-6 0 -10 -1v-3q0 -20 -20 -20t-20 20q0 39 49 39q33 0 104 -21.5t96 -21.5q7 0 12 1q-1 2 -1 3q0 20 20 20t20 -20z" />
    <glyph glyph-name="Odieresis" unicode="&#xd6;" horiz-adv-x="959" 
d="M944 399q0 -231 -112 -328q-104 -90 -340 -90t-340 90q-112 97 -112 328t112 328q104 90 340 90t340 -90q112 -97 112 -328zM908 399q0 216 -101 302q-94 80 -315 80q-222 0 -315 -79q-101 -86 -101 -303q0 -216 101 -302q94 -80 315 -80t314 80q102 86 102 302zM649 884
q0 -20 -20 -20t-20 20t20 20t20 -20zM349 884q0 -20 -20 -20t-20 20t20 20t20 -20z" />
    <glyph glyph-name="Udieresis" unicode="&#xdc;" horiz-adv-x="1004" 
d="M983 400q0 -231 -112 -328q-104 -90 -340 -90t-340 90q-112 97 -112 328v400h36v-400q0 -216 101 -302q94 -80 315 -80t314 80q102 86 102 302v400h36v-400zM643 884q0 -20 -20 -20t-20 20t20 20t20 -20zM343 884q0 -20 -20 -20t-20 20t20 20t20 -20z" />
    <glyph glyph-name="aacute" unicode="&#xe1;" horiz-adv-x="646" 
d="M619 -18q-42 0 -51 47q-77 -47 -251 -47q-128 0 -189 25q-97 38 -97 145t97 145q61 25 189 25q160 0 249 -23q-2 123 -66 167q-53 36 -183 36q-175 0 -255 -77l-25 26q91 87 280 87q143 0 206 -45q79 -57 79 -205v-244q0 -26 17 -26v-36zM566 72v190q-87 24 -249 24
q-112 0 -162 -17q-88 -29 -88 -117q0 -89 88 -118q49 -16 162 -16q187 0 249 54zM388 740l-192 -112l-18 31l192 112z" />
    <glyph glyph-name="agrave" unicode="&#xe0;" horiz-adv-x="646" 
d="M619 -18q-42 0 -51 47q-77 -47 -251 -47q-128 0 -189 25q-97 38 -97 145t97 145q61 25 189 25q160 0 249 -23q-2 123 -66 167q-53 36 -183 36q-175 0 -255 -77l-25 26q91 87 280 87q143 0 206 -45q79 -57 79 -205v-244q0 -26 17 -26v-36zM566 72v190q-87 24 -249 24
q-112 0 -162 -17q-88 -29 -88 -117q0 -89 88 -118q49 -16 162 -16q187 0 249 54zM388 663l-18 -31l-192 112l18 31z" />
    <glyph glyph-name="acircumflex" unicode="&#xe2;" horiz-adv-x="651" 
d="M621 -13q-42 0 -51 47q-77 -47 -251 -47q-128 0 -189 24q-96 39 -96 146t96 146q61 24 189 24q160 0 250 -23q-3 123 -67 167q-53 36 -183 36q-175 0 -255 -77l-25 26q91 87 280 87q143 0 206 -45q80 -57 80 -205v-244q0 -26 16 -26v-36zM569 77v190q-87 24 -250 24
q-112 0 -162 -17q-87 -29 -87 -117q0 -89 87 -118q48 -16 162 -16q187 0 250 54zM392 648l-7 -17l-73 33l-73 -33l-7 17l80 55z" />
    <glyph glyph-name="adieresis" unicode="&#xe4;" horiz-adv-x="657" 
d="M624 -18q-42 0 -51 47q-77 -47 -251 -47q-128 0 -189 24q-96 39 -96 146t96 146q61 24 189 24q161 0 250 -23q-3 123 -67 167q-52 36 -183 36q-175 0 -255 -77l-25 26q91 87 280 87q144 0 207 -45q79 -56 79 -205v-244q0 -26 16 -26v-36zM572 72v190q-87 24 -250 24
q-112 0 -162 -17q-87 -29 -87 -117q0 -89 87 -118q48 -16 162 -16q187 0 250 54zM441 649q0 -20 -20 -20t-20 20t20 20t20 -20zM249 649q0 -20 -20 -20t-20 20t20 20t20 -20z" />
    <glyph glyph-name="atilde" unicode="&#xe3;" horiz-adv-x="657" 
d="M624 -18q-42 0 -51 48q-77 -48 -251 -48q-127 0 -189 25q-96 39 -96 146t96 145q61 24 189 24q161 0 250 -22q-3 123 -67 167q-51 35 -183 35q-175 0 -255 -76l-25 26q91 86 280 86q145 0 207 -44q79 -56 79 -206v-244q0 -26 16 -26v-36zM572 73v190q-87 23 -250 23
q-113 0 -162 -16q-87 -29 -87 -117q0 -89 87 -118q50 -17 162 -17q187 0 250 55zM434 671q7 -44 -59 -44q-28 0 -57 7q-15 4 -46 6q-17 1 -25 -2h-1l-36 -6q-7 44 60 44q24 0 56 -7q6 -1 46 -6q20 0 26 2z" />
    <glyph glyph-name="aring" unicode="&#xe5;" horiz-adv-x="643" 
d="M617 -4q-41 0 -51 47q-76 -47 -251 -47q-128 0 -189 24q-96 39 -96 146t96 146q61 24 189 24q161 0 250 -23q-3 123 -67 167q-52 36 -183 36q-174 0 -255 -77l-25 27q91 86 280 86q145 0 207 -44q79 -56 79 -206v-244q0 -26 16 -26v-36zM565 86v190q-87 24 -250 24
q-112 0 -162 -17q-87 -29 -87 -117q0 -89 87 -118q48 -16 162 -16q187 0 250 54zM372 696q0 -27 -18.5 -45.5t-45.5 -18.5t-45.5 18.5t-18.5 45.5t18.5 45.5t45.5 18.5t45.5 -18.5t18.5 -45.5zM356 696q0 20 -14 34t-34 14t-34 -14t-14 -34t14 -34t34 -14t34 14t14 34z" />
    <glyph glyph-name="ccedilla" unicode="&#xe7;" horiz-adv-x="694" 
d="M646 417l-31 -18q-63 103 -268 103q-141 0 -200 -51q-63 -54 -63 -192q0 -136 64 -191q59 -50 199 -50q202 0 266 100l31 -20q-75 -116 -297 -116q-155 0 -224 60q-75 65 -75 217t74 218q70 61 225 61q225 0 299 -121z" />
    <glyph glyph-name="eacute" unicode="&#xe9;" horiz-adv-x="680" 
d="M664 240l-564 2q4 -129 70 -179q59 -45 193 -45q184 0 268 75l24 -27q-94 -84 -292 -84q-155 0 -225 60q-74 65 -74 217t74 218q70 61 225 61q156 0 226 -61q75 -65 75 -218v-19zM628 277q-4 129 -71 180q-59 45 -194 45q-133 0 -192 -45q-67 -51 -71 -179zM457 740
l-192 -112l-18 31l192 112z" />
    <glyph glyph-name="egrave" unicode="&#xe8;" horiz-adv-x="680" 
d="M664 240l-564 2q4 -129 70 -179q59 -45 193 -45q184 0 268 75l24 -27q-94 -84 -292 -84q-155 0 -225 60q-74 65 -74 217t74 218q70 61 225 61q156 0 226 -61q75 -65 75 -218v-19zM628 277q-4 129 -71 180q-59 45 -194 45q-133 0 -192 -45q-67 -51 -71 -179zM429 663
l-18 -31l-192 112l18 31z" />
    <glyph glyph-name="ecircumflex" unicode="&#xea;" horiz-adv-x="680" 
d="M664 240l-564 2q4 -129 70 -179q59 -45 193 -45q184 0 268 75l24 -27q-94 -84 -292 -84q-155 0 -225 60q-74 65 -74 217t74 218q70 61 225 61q156 0 226 -61q75 -65 75 -218v-19zM628 277q-4 129 -71 180q-59 45 -194 45q-133 0 -192 -45q-67 -51 -71 -179zM440 648
l-7 -17l-73 33l-73 -33l-7 17l80 55z" />
    <glyph glyph-name="edieresis" unicode="&#xeb;" horiz-adv-x="680" 
d="M664 240l-564 2q4 -129 70 -179q59 -45 193 -45q184 0 268 75l24 -27q-94 -84 -292 -84q-155 0 -225 60q-74 65 -74 217t74 218q70 61 225 61q156 0 226 -61q75 -65 75 -218v-19zM628 277q-4 129 -71 180q-59 45 -194 45q-133 0 -192 -45q-67 -51 -71 -179zM476 649
q0 -20 -20 -20t-20 20t20 20t20 -20zM284 649q0 -20 -20 -20t-20 20t20 20t20 -20z" />
    <glyph glyph-name="iacute" unicode="&#xed;" horiz-adv-x="421" 
d="M308 740l-192 -112l-18 31l192 112zM156 0h-36v520h36v-520z" />
    <glyph glyph-name="igrave" unicode="&#xec;" horiz-adv-x="344" 
d="M197 667l-18 -31l-192 112l18 31zM156 0h-36v520h36v-520z" />
    <glyph glyph-name="icircumflex" unicode="&#xee;" horiz-adv-x="344" 
d="M220 648l-7 -17l-73 33l-73 -33l-7 17l80 55zM156 0h-36v520h36v-520z" />
    <glyph glyph-name="idieresis" unicode="&#xef;" horiz-adv-x="344" 
d="M255 649q0 -20 -20 -20t-20 20t20 20t20 -20zM63 649q0 -20 -20 -20t-20 20t20 20t20 -20zM156 0h-36v520h36v-520z" />
    <glyph glyph-name="ntilde" unicode="&#xf1;" horiz-adv-x="702" 
d="M454 671q7 -44 -59 -44q-28 0 -57 7q-15 4 -46 6q-17 1 -25 -2h-1l-36 -6q-7 44 60 44q24 0 56 -7q6 -1 46 -6q20 0 26 2zM651 1h-36v303q0 119 -70 163q-56 35 -196 35q-177 0 -262 -71v-431h-36v520h36v-44q94 62 262 62q147 0 214 -41q88 -54 88 -193v-303z" />
    <glyph glyph-name="oacute" unicode="&#xf3;" horiz-adv-x="680" 
d="M663 259q0 -152 -75 -217q-70 -60 -225 -60t-225 60q-75 65 -75 217q0 153 74 218q70 61 226 61t226 -61q74 -65 74 -218zM627 259q0 138 -64 192q-59 51 -200 51t-200 -50q-64 -55 -64 -193q0 -137 64 -191q60 -50 200 -50t200 50q64 54 64 191zM468 740l-192 -112
l-18 31l192 112z" />
    <glyph glyph-name="ograve" unicode="&#xf2;" horiz-adv-x="680" 
d="M663 259q0 -152 -75 -217q-70 -60 -225 -60t-225 60q-75 65 -75 217q0 153 74 218q70 61 226 61t226 -61q74 -65 74 -218zM627 259q0 138 -64 192q-59 51 -200 51t-200 -50q-64 -55 -64 -193q0 -137 64 -191q60 -50 200 -50t200 50q64 54 64 191zM429 659l-19 -31
l-192 112l19 31z" />
    <glyph glyph-name="ocircumflex" unicode="&#xf4;" horiz-adv-x="680" 
d="M663 259q0 -152 -75 -217q-70 -60 -225 -60t-225 60q-75 65 -75 217q0 153 74 218q70 61 226 61t226 -61q74 -65 74 -218zM627 259q0 138 -64 192q-59 51 -200 51t-200 -50q-64 -55 -64 -193q0 -137 64 -191q60 -50 200 -50t200 50q64 54 64 191zM439 648l-7 -17l-73 33
l-72 -33l-8 17l80 55z" />
    <glyph glyph-name="odieresis" unicode="&#xf6;" horiz-adv-x="680" 
d="M663 261q0 -153 -75 -218q-69 -60 -225 -60t-225 60q-75 65 -75 218t75 218q69 60 225 60q155 0 225 -61q75 -65 75 -217zM627 261q0 137 -64 192q-59 50 -200 50t-200 -50q-64 -55 -64 -192t64 -192q59 -50 200 -50t200 50q64 55 64 192zM479 649q0 -20 -20 -20t-20 20
t20 20t20 -20zM287 649q0 -20 -20 -20t-20 20t20 20t20 -20z" />
    <glyph glyph-name="otilde" unicode="&#xf5;" horiz-adv-x="680" 
d="M663 259q0 -152 -75 -217q-70 -60 -225 -60t-225 60q-75 65 -75 217q0 153 74 218q70 61 226 61t226 -61q74 -65 74 -218zM627 259q0 138 -64 192q-59 51 -200 51t-200 -50q-64 -55 -64 -193q0 -137 64 -191q60 -50 200 -50t200 50q64 54 64 191zM467 671q8 -44 -58 -44
q-29 0 -58 7q-15 4 -46 6q-16 1 -25 -2h-1l-35 -6q-8 44 59 44q24 0 56 -7q6 -1 47 -6q19 0 26 2z" />
    <glyph glyph-name="uacute" unicode="&#xfa;" horiz-adv-x="700" 
d="M674 0h-36v37q-85 -55 -262 -55q-148 0 -215 41q-87 53 -87 193v303h36v-303q0 -119 70 -163q56 -35 196 -35q87 0 137 10q74 14 125 53v439h36v-520zM464 740l-192 -112l-18 31l192 112z" />
    <glyph glyph-name="ugrave" unicode="&#xf9;" horiz-adv-x="700" 
d="M674 0h-36v37q-85 -55 -262 -55q-148 0 -215 41q-87 53 -87 193v303h36v-303q0 -119 70 -163q56 -35 196 -35q87 0 137 10q74 14 125 53v439h36v-520zM494 663l-18 -31l-192 112l18 31z" />
    <glyph glyph-name="ucircumflex" unicode="&#xfb;" horiz-adv-x="700" 
d="M674 0h-36v37q-85 -55 -262 -55q-148 0 -215 41q-87 53 -87 193v303h36v-303q0 -119 70 -163q56 -35 196 -35q87 0 137 10q74 14 125 53v439h36v-520zM442 648l-8 -17l-72 33l-73 -33l-7 17l80 55z" />
    <glyph glyph-name="udieresis" unicode="&#xfc;" horiz-adv-x="700" 
d="M674 0h-36v37q-85 -55 -262 -55q-148 0 -215 41q-87 53 -87 193v303h36v-303q0 -119 70 -163q56 -35 196 -35q87 0 137 10q74 14 125 53v439h36v-520zM500 649q0 -20 -20 -20t-20 20t20 20t20 -20zM308 649q0 -20 -20 -20t-20 20t20 20t20 -20z" />
    <glyph glyph-name="registered" unicode="&#xae;" horiz-adv-x="611" 
d="M574 260q0 -112 -78 -190t-190 -78t-190 78t-78 190t78 190t190 78t190 -78t78 -190zM558 260q0 105 -73.5 178.5t-178.5 73.5t-178.5 -73.5t-73.5 -178.5t73.5 -178.5t178.5 -73.5t178.5 73.5t73.5 178.5zM392 120l-13 -8l-74 108h-59v-104h-16v264h80q33 0 56.5 -23.5
t23.5 -56.5q0 -29 -19 -51.5t-47 -27.5zM374 300q0 27 -18.5 45.5t-45.5 18.5h-64v-128h64q27 0 45.5 18.5t18.5 45.5z" />
    <glyph glyph-name="copyright" unicode="&#xa9;" horiz-adv-x="611" 
d="M574 260q0 -112 -78 -190t-190 -78t-190 78t-78 190t78 190t190 78t190 -78t78 -190zM558 260q0 105 -73.5 178.5t-178.5 73.5t-178.5 -73.5t-73.5 -178.5t73.5 -178.5t178.5 -73.5t178.5 73.5t73.5 178.5zM416 155q-42 -51 -108 -51q-58 0 -99 41t-41 99t41 99t99 41
q66 0 108 -51l-13 -10q-37 45 -95 45q-52 0 -88 -36t-36 -88t36 -88t88 -36q58 0 95 45z" />
    <glyph glyph-name="nonbreakingspace" unicode="&#xa0;" horiz-adv-x="360" 
 />
    <glyph glyph-name="Agrave" unicode="&#xc0;" horiz-adv-x="832" 
d="M962 0l-32 -17l-152 281h-555l-149 -281l-32 17l437 826h40zM759 300l-260 488l-257 -488h517zM388 879l-18 -31l-192 112l18 31z" />
    <glyph glyph-name="Atilde" unicode="&#xc3;" horiz-adv-x="839" 
d="M966 0l-32 -17l-153 281h-555l-149 -281l-31 17l436 826h41zM762 300l-259 488l-258 -488h517zM532 924q8 -44 -58 -44q-24 0 -57 7q-6 1 -46 6q-18 0 -26 -3v1l-36 -6q-8 43 59 43q30 0 57 -6q17 -4 46 -6q19 -1 26 2z" />
    <glyph glyph-name="Otilde" unicode="&#xd5;" horiz-adv-x="999" 
d="M964 400q0 -231 -112 -328q-104 -91 -340 -91t-340 90q-112 97 -112 329q0 231 112 328q104 89 340 89t340 -90q112 -96 112 -327zM928 400q0 215 -102 302q-93 79 -314 79t-315 -79q-101 -86 -101 -302q0 -215 101 -302q94 -81 315 -81t315 81q101 87 101 302zM617 924
q7 -44 -59 -44q-24 0 -57 7q-6 1 -46 6q-18 0 -26 -3v1l-36 -6q-7 43 59 43q30 0 57 -6q18 -4 46 -6q19 -1 26 2z" />
    <glyph glyph-name="ydieresis" unicode="&#xff;" horiz-adv-x="675" 
d="M672 0q0 -152 -76 -217q-70 -60 -226 -60q-126 0 -193 37l17 32q60 -33 176 -33q141 0 200 50q66 54 66 191v43q-88 -61 -266 -61q-167 0 -228 45q-70 51 -70 196v297h36v-297q0 -133 67 -174q50 -31 195 -31q70 0 141 15q96 20 125 57v426h36v-516zM472 609
q0 -20 -20 -20t-20 20t20 20t20 -20zM280 609q0 -20 -20 -20t-20 20t20 20t20 -20z" />
    <glyph glyph-name="Acircumflex" unicode="&#xc2;" horiz-adv-x="835" 
d="M963 0l-31 -17l-153 281h-555l-149 -281l-32 17l437 826h41zM760 300l-260 488l-257 -488h517zM427 882l-7 -17l-73 33l-72 -33l-8 17l80 56z" />
    <glyph glyph-name="Ecircumflex" unicode="&#xca;" horiz-adv-x="794" 
d="M872 -17h-770v836h770v-36h-734v-364h734v-36h-734v-364h734v-36zM639 882l-7 -17l-73 33l-72 -33l-8 17l80 56z" />
    <glyph glyph-name="Aacute" unicode="&#xc1;" horiz-adv-x="832" 
d="M962 0l-32 -17l-152 281h-555l-149 -281l-32 17l437 826h40zM759 300l-260 488l-257 -488h517zM514 960l-192 -112l-18 31l192 112z" />
    <glyph glyph-name="Edieresis" unicode="&#xcb;" horiz-adv-x="799" 
d="M874 -18h-770v836h770v-36h-734v-364h734v-36h-734v-364h734v-36zM585 884q0 -20 -20 -20t-20 20t20 20t20 -20zM285 884q0 -20 -20 -20t-20 20t20 20t20 -20z" />
    <glyph glyph-name="Egrave" unicode="&#xc8;" horiz-adv-x="799" 
d="M874 -18h-770v836h770v-36h-734v-364h734v-36h-734v-364h734v-36z" />
    <glyph glyph-name="Iacute" unicode="&#xcd;" horiz-adv-x="737" 
d="M700 -18h-612v36h296v764h-296v36h612v-36h-280v-764h280v-36zM528 960l-192 -112l-19 31l192 112z" />
    <glyph glyph-name="Icircumflex" unicode="&#xce;" horiz-adv-x="737" 
d="M700 -18h-612v36h296v764h-296v36h612v-36h-280v-764h280v-36zM460 882l-8 -17l-72 33l-73 -33l-7 17l80 56z" />
    <glyph glyph-name="Idieresis" unicode="&#xcf;" horiz-adv-x="737" 
d="M700 -18h-612v36h296v764h-296v36h612v-36h-280v-764h280v-36zM544 884q0 -20 -20 -20t-20 20t20 20t20 -20zM244 884q0 -20 -20 -20t-20 20t20 20t20 -20z" />
    <glyph glyph-name="Igrave" unicode="&#xcc;" horiz-adv-x="737" 
d="M700 -18h-612v36h296v764h-296v36h612v-36h-280v-764h280v-36zM442 879l-18 -31l-192 112l18 31z" />
    <glyph glyph-name="Oacute" unicode="&#xd3;" horiz-adv-x="999" 
d="M964 400q0 -231 -112 -328q-104 -90 -340 -90t-340 90q-112 97 -112 328t112 328q104 90 340 90t340 -90q112 -97 112 -328zM928 400q0 216 -101 302q-94 80 -315 80q-222 0 -315 -79q-101 -86 -101 -303q0 -216 101 -302q94 -80 315 -80t314 80q102 86 102 302zM601 960
l-192 -112l-19 31l192 112z" />
    <glyph glyph-name="Ocircumflex" unicode="&#xd4;" horiz-adv-x="999" 
d="M964 400q0 -231 -112 -328q-104 -90 -340 -90t-340 90q-112 97 -112 328t112 328q104 90 340 90t340 -90q112 -97 112 -328zM928 400q0 216 -101 302q-94 80 -315 80q-222 0 -315 -79q-101 -86 -101 -303q0 -216 101 -302q94 -80 315 -80t314 80q102 86 102 302zM581 882
l-8 -17l-72 33l-73 -33l-7 17l80 56z" />
    <glyph glyph-name="Ograve" unicode="&#xd2;" horiz-adv-x="999" 
d="M964 400q0 -231 -112 -328q-104 -90 -340 -90t-340 90q-112 97 -112 328t112 328q104 90 340 90t340 -90q112 -97 112 -328zM928 400q0 216 -101 302q-94 80 -315 80q-222 0 -315 -79q-101 -86 -101 -303q0 -216 101 -302q94 -80 315 -80t314 80q102 86 102 302zM565 879
l-19 -31l-192 112l19 31z" />
    <glyph glyph-name="Uacute" unicode="&#xda;" horiz-adv-x="1004" 
d="M983 400q0 -231 -112 -328q-104 -90 -340 -90t-340 90q-112 97 -112 328v400h36v-400q0 -216 101 -302q94 -80 315 -80t314 80q102 86 102 302v400h36v-400zM579 960l-192 -112l-18 31l192 112z" />
    <glyph glyph-name="Ucircumflex" unicode="&#xdb;" horiz-adv-x="1004" 
d="M983 400q0 -231 -112 -328q-104 -90 -340 -90t-340 90q-112 97 -112 328v400h36v-400q0 -216 101 -302q94 -80 315 -80t314 80q102 86 102 302v400h36v-400zM591 882l-7 -17l-73 33l-73 -33l-7 17l80 56z" />
    <glyph glyph-name="Ugrave" unicode="&#xd9;" horiz-adv-x="1004" 
d="M983 400q0 -231 -112 -328q-104 -90 -340 -90t-340 90q-112 97 -112 328v400h36v-400q0 -216 101 -302q94 -80 315 -80t314 80q102 86 102 302v400h36v-400zM579 879l-18 -31l-192 112l18 31z" />
  </font>
</defs>
</svg>
